<svg width="1600" height="900" viewBox="0 0 1600 900" fill="none" xmlns="http://www.w3.org/2000/svg">
  <rect width="1600" height="900" rx="40" fill="#F8FAFC"/>
  <rect x="110" y="90" width="1380" height="720" rx="36" fill="#E2EEF6"/>
  <rect x="156" y="138" width="292" height="48" rx="24" fill="#0077B6"/>
  <text x="188" y="170" fill="white" font-family="Arial, sans-serif" font-size="24" font-weight="700">Concept Spectator Map</text>
  <rect x="220" y="250" width="180" height="96" rx="26" fill="#0F172A"/>
  <text x="248" y="308" fill="white" font-family="Arial, sans-serif" font-size="28" font-weight="700">Forum side</text>
  <rect x="640" y="364" width="238" height="110" rx="30" fill="#F2C14E"/>
  <text x="684" y="430" fill="#0F172A" font-family="Arial, sans-serif" font-size="34" font-weight="700">Grote Markt</text>
  <rect x="1048" y="508" width="214" height="98" rx="28" fill="#0F172A"/>
  <text x="1098" y="568" fill="white" font-family="Arial, sans-serif" font-size="32" font-weight="700">Vismarkt</text>
  <rect x="980" y="286" width="250" height="92" rx="26" fill="#38BDF8"/>
  <text x="1014" y="342" fill="#0F172A" font-family="Arial, sans-serif" font-size="26" font-weight="700">Chang Thai side</text>
  <path d="M400 308C512 318 572 344 650 398" stroke="#FB923C" stroke-width="20" stroke-linecap="round"/>
  <path d="M878 420C962 422 1028 456 1094 520" stroke="#FB923C" stroke-width="20" stroke-linecap="round"/>
  <path d="M850 420C932 380 980 350 1020 330" stroke="#0EA5E9" stroke-width="16" stroke-linecap="round" stroke-dasharray="20 18"/>
  <path d="M300 610C412 560 506 520 642 470" stroke="#22C55E" stroke-width="16" stroke-linecap="round" stroke-dasharray="18 18"/>
  <text x="170" y="738" fill="#0F172A" font-family="Arial, sans-serif" font-size="26" font-weight="700">Orange: concept crowd flow</text>
  <text x="170" y="774" fill="#0F172A" font-family="Arial, sans-serif" font-size="26" font-weight="700">Blue dashed: local viewing movement</text>
  <text x="170" y="810" fill="#0F172A" font-family="Arial, sans-serif" font-size="26" font-weight="700">Green dashed: lower-stress walking route</text>
</svg>
